<svg xmlns="http://www.w3.org/2000/svg" width="600" height="800" viewBox="0 0 600 800"><rect width="100%" height="100%" fill="#DDDDDD"/><path fill="#999999" d="M148.19 410.2q.57 0 1.01.45l2.76 2.99q-2.29 2.83-5.63 4.34t-8.02 1.51q-4.19 0-7.53-1.43t-5.71-3.98q-2.36-2.55-3.62-6.09-1.27-3.53-1.27-7.72 0-4.24 1.36-7.76 1.35-3.52 3.81-6.07 2.45-2.55 5.86-3.97 3.4-1.41 7.54-1.41 4.11 0 7.29 1.35 3.19 1.35 5.42 3.54l-2.34 3.25q-.21.31-.53.54-.33.24-.9.24-.39 0-.8-.23-.42-.22-.91-.54-.5-.33-1.15-.72t-1.51-.71q-.85-.33-1.98-.55-1.14-.22-2.62-.22-2.52 0-4.61.9-2.1.9-3.6 2.6-1.51 1.7-2.34 4.16-.84 2.46-.84 5.6 0 3.17.9 5.64t2.43 4.16q1.54 1.69 3.62 2.59t4.47.9q1.43 0 2.59-.16 1.15-.15 2.13-.49.97-.34 1.84-.87.87-.54 1.73-1.32.26-.23.55-.37.28-.15.6-.15m21.65 1.98v-4.5q-2.78.13-4.68.48-1.89.35-3.04.9-1.14.55-1.64 1.27-.49.73-.49 1.59 0 1.69 1 2.42t2.61.73q1.98 0 3.42-.72 1.45-.71 2.82-2.17m-13.57-14.01-1.14-2.06q4.6-4.21 11.07-4.21 2.34 0 4.19.77 1.85.76 3.12 2.13 1.27 1.36 1.94 3.26.66 1.9.66 4.16v16.85h-2.91q-.91 0-1.41-.27-.49-.28-.78-1.11l-.57-1.92q-1.01.91-1.97 1.6-.97.69-2.01 1.15-1.04.47-2.22.72t-2.61.25q-1.69 0-3.12-.46-1.43-.45-2.47-1.36t-1.61-2.27q-.58-1.35-.58-3.14 0-1.02.34-2.02t1.11-1.91q.76-.91 1.99-1.71 1.22-.81 3-1.41t4.15-.97q2.36-.38 5.4-.46v-1.56q0-2.68-1.14-3.96-1.14-1.29-3.3-1.29-1.56 0-2.59.36-1.03.37-1.81.82-.78.46-1.41.82-.64.37-1.42.37-.68 0-1.14-.36-.47-.35-.76-.81m32.29 20.9h-6.42v-26.68h3.93q1.25 0 1.64 1.17l.41 1.98q.7-.78 1.47-1.43t1.64-1.12 1.87-.74 2.2-.27q2.52 0 4.15 1.36 1.62 1.37 2.43 3.63.62-1.33 1.56-2.28.93-.94 2.05-1.54t2.38-.89q1.26-.28 2.53-.28 2.21 0 3.93.67 1.72.68 2.89 1.98t1.78 3.17.61 4.29v16.98h-6.42v-16.98q0-2.55-1.12-3.83-1.12-1.29-3.28-1.29-.99 0-1.83.34-.85.34-1.48.97-.64.64-1 1.6-.37.96-.37 2.21v16.98h-6.45v-16.98q0-2.68-1.07-3.9-1.08-1.22-3.16-1.22-1.41 0-2.62.69t-2.25 1.88zm37.34-26.68h6.45v26.68h-6.45zm7.33-7.77q0 .83-.34 1.56-.33.73-.89 1.27-.56.55-1.32.87-.75.33-1.61.33-.83 0-1.57-.33-.74-.32-1.29-.87-.54-.54-.87-1.27-.32-.73-.32-1.56 0-.86.32-1.61.33-.76.87-1.3.55-.55 1.29-.87.74-.33 1.57-.33.86 0 1.61.33.76.32 1.32.87.56.54.89 1.3.34.75.34 1.61m23.4 10.66-1.45 2.31q-.26.42-.55.59t-.73.17q-.47 0-1-.26t-1.23-.59q-.71-.32-1.6-.58-.9-.26-2.12-.26-1.9 0-2.98.8-1.08.81-1.08 2.11 0 .86.56 1.44.56.59 1.48 1.03.93.44 2.1.79t2.38.77q1.2.42 2.37.95t2.1 1.35q.92.82 1.48 1.96.56 1.15.56 2.76 0 1.92-.69 3.55-.69 1.62-2.04 2.81-1.35 1.18-3.34 1.84-1.99.67-4.59.67-1.38 0-2.69-.25-1.32-.25-2.52-.69-1.21-.44-2.24-1.04t-1.81-1.3l1.48-2.44q.29-.45.68-.68t.99-.23 1.13.33q.53.34 1.23.73.71.39 1.66.73.94.34 2.4.34 1.14 0 1.96-.28.82-.27 1.36-.71.53-.44.78-1.03.24-.58.24-1.21 0-.93-.56-1.53t-1.48-1.04-2.1-.79q-1.19-.35-2.42-.77-1.24-.42-2.42-.98-1.18-.55-2.11-1.41-.92-.86-1.48-2.11t-.56-3.01q0-1.64.65-3.12.65-1.49 1.91-2.59 1.26-1.11 3.15-1.77 1.88-.66 4.35-.66 2.76 0 5.02.91t3.77 2.39m19.22 16.9v-4.5q-2.79.13-4.68.48-1.9.35-3.05.9-1.14.55-1.63 1.27-.5.73-.5 1.59 0 1.69 1 2.42t2.62.73q1.97 0 3.42-.72 1.44-.71 2.82-2.17m-13.58-14.01-1.14-2.06q4.6-4.21 11.08-4.21 2.34 0 4.18.77 1.85.76 3.12 2.13 1.28 1.36 1.94 3.26t.66 4.16v16.85h-2.91q-.91 0-1.4-.27-.5-.28-.78-1.11l-.58-1.92q-1.01.91-1.97 1.6t-2 1.15q-1.04.47-2.23.72-1.18.25-2.61.25-1.69 0-3.12-.46-1.43-.45-2.47-1.36t-1.61-2.27q-.57-1.35-.57-3.14 0-1.02.33-2.02.34-1 1.11-1.91t1.99-1.71q1.22-.81 3-1.41t4.15-.97q2.36-.38 5.41-.46v-1.56q0-2.68-1.15-3.96-1.14-1.29-3.3-1.29-1.56 0-2.59.36-1.02.37-1.8.82-.78.46-1.42.82-.64.37-1.42.37-.67 0-1.14-.36-.47-.35-.76-.81m46.52 1.19h4.37q1.97 0 3.44-.49 1.47-.5 2.42-1.37t1.42-2.06q.46-1.2.46-2.63 0-2.86-1.88-4.39-1.89-1.54-5.76-1.54h-4.47zm12.95 5.83 9.41 13.88h-6.32q-1.79 0-2.6-1.4l-7.9-12.04q-.45-.68-.98-.96-.53-.29-1.57-.29h-2.99v14.69h-7v-37.6h11.47q3.82 0 6.57.8 2.74.79 4.49 2.22 1.76 1.43 2.59 3.42t.83 4.38q0 1.9-.56 3.59t-1.61 3.07q-1.05 1.37-2.6 2.41t-3.52 1.64q.67.39 1.25.92.57.54 1.04 1.27m17.55-2.53h12.11q0-1.24-.35-2.35-.35-1.1-1.05-1.94-.7-.83-1.78-1.31t-2.51-.48q-2.78 0-4.38 1.59-1.6 1.58-2.04 4.49m16.38 3.88h-16.51q.15 2.05.72 3.55.58 1.49 1.51 2.47.94.97 2.23 1.45 1.28.48 2.84.48t2.69-.36 1.98-.81q.84-.44 1.48-.8.64-.37 1.24-.37.8 0 1.19.6l1.85 2.34q-1.07 1.25-2.39 2.09-1.33.85-2.77 1.36-1.45.5-2.94.71-1.5.21-2.9.21-2.78 0-5.17-.92-2.4-.93-4.16-2.73-1.77-1.81-2.79-4.48-1.01-2.66-1.01-6.17 0-2.73.88-5.14.89-2.4 2.54-4.18t4.03-2.82 5.37-1.04q2.52 0 4.65.8 2.13.81 3.67 2.36 1.53 1.54 2.4 3.79t.87 5.14q0 1.45-.31 1.96t-1.19.51m24.05-11.26-1.46 2.31q-.26.42-.55.59-.28.17-.72.17-.47 0-1-.26-.54-.26-1.24-.59-.7-.32-1.6-.58t-2.12-.26q-1.9 0-2.97.8-1.08.81-1.08 2.11 0 .86.56 1.44.55.59 1.48 1.03.92.44 2.09.79t2.38.77 2.38.95 2.09 1.35 1.48 1.96q.56 1.15.56 2.76 0 1.92-.69 3.55-.69 1.62-2.04 2.81-1.35 1.18-3.34 1.84-1.99.67-4.59.67-1.38 0-2.69-.25t-2.52-.69-2.24-1.04q-1.02-.6-1.8-1.3l1.48-2.44q.28-.45.67-.68t.99-.23 1.13.33q.54.34 1.24.73t1.65.73 2.4.34q1.15 0 1.97-.28.82-.27 1.35-.71t.78-1.03q.25-.58.25-1.21 0-.93-.56-1.53t-1.48-1.04q-.93-.44-2.11-.79t-2.42-.77q-1.23-.42-2.42-.98-1.18-.55-2.1-1.41-.93-.86-1.48-2.11-.56-1.25-.56-3.01 0-1.64.65-3.12.65-1.49 1.91-2.59 1.26-1.11 3.14-1.77 1.89-.66 4.36-.66 2.75 0 5.02.91 2.26.91 3.77 2.39m10.19 7.38h12.11q0-1.24-.35-2.35-.35-1.1-1.05-1.94-.7-.83-1.78-1.31t-2.51-.48q-2.78 0-4.38 1.59-1.6 1.58-2.04 4.49m16.38 3.88h-16.51q.15 2.05.73 3.55.57 1.49 1.5 2.47.94.97 2.23 1.45 1.28.48 2.84.48t2.7-.36q1.13-.36 1.97-.81.85-.44 1.48-.8.64-.37 1.24-.37.8 0 1.19.6l1.85 2.34q-1.07 1.25-2.39 2.09-1.33.85-2.77 1.36-1.44.5-2.94.71-1.49.21-2.9.21-2.78 0-5.17-.92-2.39-.93-4.16-2.73-1.77-1.81-2.78-4.48-1.02-2.66-1.02-6.17 0-2.73.89-5.14.88-2.4 2.53-4.18t4.03-2.82 5.37-1.04q2.52 0 4.65.8 2.14.81 3.67 2.36 1.53 1.54 2.41 3.79.87 2.25.87 5.14 0 1.45-.32 1.96-.31.51-1.19.51m11.98-12.53.39 3.01q1.25-2.39 2.97-3.76 1.71-1.36 4.05-1.36 1.85 0 2.97.81l-.42 4.81q-.13.46-.37.66-.25.19-.67.19-.39 0-1.15-.13-.77-.13-1.5-.13-1.07 0-1.9.32-.83.31-1.49.89-.67.59-1.17 1.42-.51.83-.95 1.9v16.43h-6.42v-26.68h3.77q.98 0 1.37.35.39.36.52 1.27m32.71-1.62h5.07l-10.58 26.68h-5.82l-10.59-26.68h5.31q.73 0 1.21.34t.63.86l5.15 14.25q.42 1.25.73 2.44.31 1.2.55 2.39.26-1.19.57-2.39.31-1.19.75-2.44l5.25-14.25q.19-.52.65-.86.47-.34 1.12-.34m22.57 19.79v-4.5q-2.78.13-4.68.48t-3.04.9q-1.15.55-1.64 1.27-.49.73-.49 1.59 0 1.69 1 2.42t2.61.73q1.98 0 3.42-.72 1.44-.71 2.82-2.17m-13.57-14.01-1.15-2.06q4.61-4.21 11.08-4.21 2.34 0 4.19.77 1.84.76 3.12 2.13 1.27 1.36 1.93 3.26.67 1.9.67 4.16v16.85h-2.92q-.91 0-1.4-.27-.49-.28-.78-1.11l-.57-1.92q-1.02.91-1.98 1.6t-2 1.15q-1.04.47-2.22.72-1.19.25-2.62.25-1.69 0-3.12-.46-1.43-.45-2.47-1.36t-1.61-2.27q-.57-1.35-.57-3.14 0-1.02.34-2.02t1.1-1.91q.77-.91 1.99-1.71 1.22-.81 3.01-1.41 1.78-.6 4.14-.97 2.37-.38 5.41-.46v-1.56q0-2.68-1.14-3.96-1.15-1.29-3.31-1.29-1.56 0-2.58.36-1.03.37-1.81.82-.78.46-1.42.82-.63.37-1.41.37-.68 0-1.15-.36-.47-.35-.75-.81"/></svg>