<svg xmlns="http://www.w3.org/2000/svg" width="200" height="100" viewBox="0 0 200 100"><rect width="100%" height="100%" fill="#DDDDDD"/><path fill="#999999" d="M42.775 50.16h2.01q.74 0 1.29-.19.55-.18.91-.53.37-.34.55-.84.18-.49.18-1.1 0-.58-.18-1.05t-.55-.8q-.36-.33-.9-.51-.55-.17-1.3-.17h-2.01zm-2.69-7.27h4.7q1.45 0 2.51.34t1.75.95 1.02 1.46q.34.85.34 1.86 0 1.05-.35 1.93-.35.87-1.05 1.5t-1.76.98q-1.05.35-2.46.35h-2.01v5.09h-2.69zm17.41 11.81v-1.73q-1.07.05-1.8.18-.73.14-1.17.35t-.63.49-.19.61q0 .65.38.93.39.28 1.01.28.76 0 1.31-.27.56-.28 1.09-.84m-5.22-5.39-.44-.79q1.77-1.62 4.26-1.62.9 0 1.61.3.71.29 1.2.81.49.53.74 1.26.26.73.26 1.6v6.48h-1.12q-.35 0-.54-.1-.19-.11-.3-.43l-.22-.74q-.39.35-.76.61-.37.27-.77.45t-.86.28q-.45.09-1 .09-.65 0-1.2-.17-.55-.18-.95-.53t-.62-.87-.22-1.21q0-.39.13-.78.13-.38.42-.73.3-.35.77-.66t1.15-.54q.69-.23 1.6-.38.91-.14 2.08-.17v-.6q0-1.03-.44-1.53-.44-.49-1.27-.49-.6 0-1 .14-.39.14-.69.32l-.55.31q-.24.14-.54.14-.26 0-.44-.14-.18-.13-.29-.31m16.39 5v-4.6q-.42-.51-.92-.72-.49-.21-1.06-.21-.56 0-1.01.21t-.77.63q-.32.43-.49 1.08-.17.66-.17 1.55 0 .9.14 1.52.15.63.42 1.02.27.4.66.57.39.18.87.18.77 0 1.31-.32t1.02-.91m0-11.82h2.47v14.86h-1.51q-.49 0-.62-.45l-.21-.99q-.62.71-1.43 1.15-.8.44-1.87.44-.84 0-1.54-.35t-1.21-1.02q-.5-.66-.78-1.64-.27-.98-.27-2.24 0-1.14.31-2.12t.89-1.7 1.39-1.12q.81-.41 1.82-.41.86 0 1.47.27t1.09.73zm10.33 12.21v-1.73q-1.07.05-1.8.18-.73.14-1.17.35t-.63.49-.19.61q0 .65.38.93.39.28 1.01.28.76 0 1.31-.27.56-.28 1.09-.84m-5.22-5.39-.44-.79q1.77-1.62 4.26-1.62.9 0 1.61.3.71.29 1.2.81.49.53.74 1.26.26.73.26 1.6v6.48h-1.12q-.35 0-.54-.1-.19-.11-.3-.43l-.22-.74q-.39.35-.76.61-.37.27-.77.45t-.86.28q-.45.09-1 .09-.65 0-1.2-.17-.55-.18-.95-.53t-.62-.87-.22-1.21q0-.39.13-.78.13-.38.42-.73.3-.35.77-.66t1.15-.54q.69-.23 1.6-.38.91-.14 2.08-.17v-.6q0-1.03-.44-1.53-.44-.49-1.27-.49-.6 0-1 .14-.39.14-.69.32l-.55.31q-.24.14-.54.14-.26 0-.44-.14-.18-.13-.29-.31m12.13-1.6.15 1.16q.48-.92 1.14-1.45.66-.52 1.56-.52.71 0 1.14.31l-.16 1.85q-.05.18-.15.25-.09.08-.25.08-.15 0-.45-.05-.29-.05-.57-.05-.41 0-.73.12t-.58.35q-.25.22-.45.54-.19.32-.36.73v6.32h-2.47V47.09h1.45q.38 0 .53.13.15.14.2.49m5.36-.62h2.48v10.26h-2.48zm2.82-2.99q0 .32-.13.6t-.35.49q-.21.21-.5.33-.29.13-.62.13-.32 0-.61-.13-.28-.12-.49-.33t-.34-.49q-.12-.28-.12-.6 0-.33.12-.62.13-.29.34-.5t.49-.34q.29-.12.61-.12.33 0 .62.12.29.13.5.34.22.21.35.5t.13.62m7.6 10.6v-1.73q-1.07.05-1.8.18-.73.14-1.17.35t-.63.49-.19.61q0 .65.38.93.39.28 1.01.28.76 0 1.31-.27.56-.28 1.09-.84m-5.22-5.39-.44-.79q1.77-1.62 4.26-1.62.9 0 1.61.3.71.29 1.2.81.49.53.74 1.26.26.73.26 1.6v6.48h-1.12q-.35 0-.54-.1-.19-.11-.3-.43l-.22-.74q-.39.35-.76.61-.37.27-.77.45t-.86.28q-.45.09-1 .09-.65 0-1.2-.17-.55-.18-.95-.53t-.62-.87-.22-1.21q0-.39.13-.78.13-.38.42-.73.3-.35.77-.66t1.15-.54q.69-.23 1.6-.38.91-.14 2.08-.17v-.6q0-1.03-.44-1.53-.44-.49-1.27-.49-.6 0-1 .14-.39.14-.69.32l-.55.31q-.24.14-.54.14-.26 0-.44-.14-.18-.13-.29-.31m21.25 5v-4.6q-.42-.51-.92-.72-.49-.21-1.06-.21-.56 0-1.01.21t-.77.63q-.32.43-.49 1.08-.17.66-.17 1.55 0 .9.14 1.52.15.63.42 1.02.27.4.66.57.39.18.87.18.77 0 1.31-.32t1.02-.91m0-11.82h2.47v14.86h-1.51q-.49 0-.62-.45l-.21-.99q-.62.71-1.43 1.15-.8.44-1.87.44-.84 0-1.54-.35t-1.21-1.02q-.5-.66-.78-1.64-.27-.98-.27-2.24 0-1.14.31-2.12t.89-1.7 1.39-1.12q.81-.41 1.82-.41.86 0 1.47.27t1.09.73zm9.45 4.44q1.14 0 2.07.37.94.37 1.6 1.05.67.68 1.03 1.66t.36 2.19q0 1.22-.36 2.2t-1.03 1.67q-.66.69-1.6 1.06-.93.37-2.07.37-1.15 0-2.09-.37t-1.61-1.06q-.66-.69-1.03-1.67-.36-.98-.36-2.2 0-1.21.36-2.19.37-.98 1.03-1.66.67-.68 1.61-1.05t2.09-.37m0 8.67q1.28 0 1.89-.86.62-.86.62-2.52t-.62-2.53q-.61-.87-1.89-.87-1.3 0-1.93.87-.62.88-.62 2.53t.62 2.51q.63.87 1.93.87m22.16-12.71v.99q0 .46-.26.84l-7.42 10.48h7.51v2.15h-11v-1.06q0-.2.07-.39.07-.18.18-.34l7.44-10.53h-7.22v-2.14zm3.71 8.15h4.66q0-.48-.14-.9-.13-.43-.4-.75t-.69-.5q-.41-.19-.96-.19-1.07 0-1.69.61-.61.61-.78 1.73m6.3 1.49h-6.35q.06.79.28 1.36.22.58.58.96.36.37.85.55.5.19 1.1.19t1.03-.14q.44-.14.76-.31.33-.17.57-.31.25-.14.48-.14.31 0 .46.23l.71.9q-.41.48-.92.81-.51.32-1.07.51-.55.2-1.13.28-.57.08-1.11.08-1.07 0-1.99-.36-.92-.35-1.6-1.05-.68-.69-1.07-1.72-.39-1.02-.39-2.37 0-1.05.34-1.98.34-.92.97-1.61.64-.68 1.55-1.08.92-.4 2.07-.4.97 0 1.79.31t1.41.9q.59.6.92 1.46.34.87.34 1.98 0 .56-.12.76-.12.19-.46.19"/></svg>