<svg xmlns="http://www.w3.org/2000/svg" width="200" height="200" viewBox="0 0 200 200"><rect width="100%" height="100%" fill="#DDDDDD"/><path fill="#999999" d="M52.325 102.68q.25 0 .45.19l1.22 1.33q-1.02 1.25-2.49 1.92-1.48.66-3.55.66-1.85 0-3.33-.63t-2.53-1.76q-1.04-1.12-1.6-2.69-.56-1.56-.56-3.41 0-1.88.6-3.44t1.69-2.68q1.08-1.13 2.59-1.76 1.51-.62 3.33-.62t3.23.6q1.41.59 2.4 1.56l-1.04 1.44q-.09.13-.23.24-.15.1-.4.1-.17 0-.36-.1-.18-.09-.4-.24-.22-.14-.51-.31-.28-.18-.66-.32t-.88-.24-1.16-.1q-1.11 0-2.04.4-.92.39-1.59 1.15-.67.75-1.04 1.84-.36 1.08-.36 2.48t.39 2.49q.4 1.09 1.08 1.84t1.6 1.15q.92.39 1.97.39.64 0 1.15-.07t.94-.22.82-.38q.38-.24.76-.58.12-.1.24-.17.13-.06.27-.06m8.57-8.06q1.31 0 2.38.42 1.08.43 1.84 1.21.77.78 1.18 1.91t.41 2.52q0 1.4-.41 2.53-.41 1.12-1.18 1.92-.76.79-1.84 1.22-1.07.42-2.38.42-1.33 0-2.41-.42-1.08-.43-1.84-1.22-.77-.8-1.19-1.92-.42-1.13-.42-2.53 0-1.39.42-2.52t1.19-1.91q.76-.78 1.84-1.21 1.08-.42 2.41-.42m0 9.97q1.47 0 2.18-.99.7-.99.7-2.9t-.7-2.91q-.71-1-2.18-1-1.5 0-2.22 1.01-.72 1-.72 2.9t.72 2.89q.72 1 2.22 1m10.83-6.34v5.29q.48.59 1.05.83t1.24.24q.64 0 1.16-.24t.88-.74q.36-.49.56-1.24.19-.76.19-1.78 0-1.04-.16-1.76-.17-.71-.48-1.16t-.76-.66q-.44-.21-1-.21-.89 0-1.51.38-.62.37-1.17 1.05m-.38-2.93.23 1.09q.72-.82 1.64-1.32.92-.51 2.17-.51.96 0 1.76.4.8.41 1.38 1.17.58.77.9 1.89.31 1.12.31 2.57 0 1.32-.35 2.45-.36 1.12-1.02 1.95t-1.6 1.3q-.94.46-2.1.46-.99 0-1.69-.3-.7-.31-1.25-.85v4.83h-2.84V94.8h1.73q.56 0 .73.52m16.84 8.23v-1.99q-1.24.06-2.07.22-.84.15-1.35.39t-.72.57q-.22.32-.22.7 0 .74.44 1.07.44.32 1.16.32.87 0 1.51-.32.64-.31 1.25-.96m-6.01-6.2-.5-.9q2.03-1.87 4.9-1.87 1.03 0 1.85.34.81.34 1.38.94.56.61.85 1.45.3.84.3 1.84v7.45h-1.29q-.4 0-.62-.12t-.35-.49l-.25-.85q-.45.4-.87.71-.43.3-.89.51t-.98.31q-.53.11-1.16.11-.75 0-1.38-.2t-1.09-.6-.71-1q-.26-.6-.26-1.39 0-.45.15-.89.15-.45.49-.85t.88-.76 1.33-.62 1.83-.43q1.05-.17 2.4-.2v-.69q0-1.19-.51-1.76t-1.46-.57q-.69 0-1.15.17-.45.16-.79.36l-.63.36q-.28.16-.63.16-.3 0-.5-.15-.21-.16-.34-.37m20.58 6.83h3.12q.87 0 1.45-.2.59-.21.94-.55.35-.35.51-.81.15-.46.15-.98 0-.54-.17-.97t-.54-.73q-.37-.31-.95-.47t-1.4-.16h-3.11zm2.63-11.82h-2.63v4.81h2.46q1.58 0 2.39-.57.82-.58.82-1.83 0-1.3-.74-1.86-.74-.55-2.3-.55m-5.73-2.39h5.73q1.63 0 2.79.31 1.17.31 1.91.89.74.57 1.08 1.39.35.82.35 1.84 0 .58-.17 1.12-.18.53-.54 1t-.92.85q-.56.37-1.33.64 3.43.77 3.43 3.7 0 1.06-.4 1.96-.4.89-1.18 1.54-.77.65-1.89 1.02-1.13.37-2.58.37h-6.28zm20.93 13.58v-1.99q-1.23.06-2.07.22-.84.15-1.34.39-.51.24-.73.57-.22.32-.22.7 0 .74.45 1.07.44.32 1.15.32.88 0 1.51-.32.64-.31 1.25-.96m-6-6.2-.51-.9q2.04-1.87 4.9-1.87 1.04 0 1.85.34.82.34 1.38.94.57.61.86 1.45t.29 1.84v7.45h-1.28q-.41 0-.63-.12-.21-.12-.34-.49l-.25-.85q-.45.4-.88.71-.42.3-.88.51t-.99.31q-.52.11-1.15.11-.75 0-1.38-.2t-1.09-.6-.72-1q-.25-.6-.25-1.39 0-.45.15-.89.15-.45.49-.85t.88-.76 1.33-.62q.78-.26 1.83-.43t2.39-.2v-.69q0-1.19-.5-1.76-.51-.57-1.46-.57-.69 0-1.15.17-.45.16-.8.36-.34.2-.62.36-.29.16-.63.16-.3 0-.51-.15-.2-.16-.33-.37m11.53-2.55h2.86v11.8h-2.86zm3.25-3.44q0 .37-.15.69t-.4.57q-.25.24-.58.38t-.71.14q-.37 0-.7-.14t-.57-.38q-.24-.25-.38-.57-.15-.32-.15-.69 0-.38.15-.71.14-.33.38-.58.24-.24.57-.38t.7-.14q.38 0 .71.14t.58.38q.25.25.4.58t.15.71m5.01 4.15.17 1.34q.56-1.06 1.31-1.66.76-.61 1.8-.61.81 0 1.31.36l-.18 2.13q-.06.2-.17.29t-.29.09-.52-.06-.66-.06q-.47 0-.84.14t-.66.4q-.29.25-.52.62-.22.37-.42.84v7.27h-2.84V94.8h1.67q.44 0 .61.16.17.15.23.55m8.58 0 .17 1.34q.55-1.06 1.31-1.66.76-.61 1.8-.61.81 0 1.31.36l-.19 2.13q-.05.2-.16.29t-.3.09q-.17 0-.51-.06t-.66-.06q-.47 0-.84.14t-.66.4q-.29.25-.52.62-.22.37-.42.84v7.27h-2.84V94.8h1.67q.44 0 .61.16.17.15.23.55m11.29-.89q1.31 0 2.39.42 1.07.43 1.84 1.21.76.78 1.18 1.91.41 1.13.41 2.52 0 1.4-.41 2.53-.42 1.12-1.18 1.92-.77.79-1.84 1.22-1.08.42-2.39.42-1.32 0-2.4-.42-1.08-.43-1.85-1.22-.76-.8-1.18-1.92-.42-1.13-.42-2.53 0-1.39.42-2.52t1.18-1.91q.77-.78 1.85-1.21 1.08-.42 2.4-.42m0 9.97q1.47 0 2.18-.99t.71-2.9-.71-2.91-2.18-1q-1.49 0-2.21 1.01-.72 1-.72 2.9t.72 2.89q.72 1 2.21 1"/></svg>