<svg xmlns="http://www.w3.org/2000/svg" width="200" height="200" viewBox="0 0 200 200"><rect width="100%" height="100%" fill="#DDDDDD"/><path fill="#999999" d="M52.945 111.355h19.37v7.44h-28.38v-48.44h9.01zm24.76-26.93h8.31v34.37h-8.31zm9.45-10.02q0 1.07-.44 2.01-.43.94-1.15 1.64-.72.71-1.7 1.13-.97.41-2.07.41-1.08 0-2.03-.41-.95-.42-1.66-1.13-.7-.7-1.12-1.64t-.42-2.01q0-1.1.42-2.07.42-.98 1.12-1.68.71-.7 1.66-1.12t2.03-.42q1.1 0 2.07.42.98.42 1.7 1.12t1.15 1.68q.44.97.44 2.07m19.86 26.37q1.54 0 2.68-.42t1.9-1.16q.75-.73 1.13-1.77.39-1.04.39-2.28 0-2.55-1.52-4.04-1.53-1.49-4.58-1.49t-4.57 1.49-1.52 4.04q0 1.2.38 2.24.39 1.04 1.14 1.8.75.75 1.91 1.17t2.66.42m9.35 19.56q0-1-.6-1.64-.61-.64-1.65-.99-1.03-.35-2.42-.52t-2.95-.25-3.22-.15-3.23-.27q-1.37.77-2.23 1.81-.85 1.04-.85 2.41 0 .91.45 1.69.45.79 1.44 1.36t2.56.89q1.58.32 3.86.32 2.31 0 3.98-.35 1.68-.36 2.77-.98 1.08-.62 1.59-1.47.5-.85.5-1.86m-1.64-34.74h9.88v3.08q0 1.48-1.78 1.81l-3.08.57q.71 1.78.71 3.89 0 2.54-1.03 4.6-1.02 2.06-2.83 3.5-1.81 1.45-4.27 2.23-2.46.79-5.31.79-1 0-1.94-.1t-1.84-.27q-1.61.97-1.61 2.18 0 1.04.95 1.52.96.49 2.53.69 1.58.2 3.59.25t4.12.22 4.12.59q2.01.41 3.58 1.32 1.58.9 2.53 2.46.96 1.56.96 4 0 2.28-1.13 4.43-1.12 2.14-3.24 3.82-2.13 1.67-5.23 2.69t-7.05 1.02q-3.89 0-6.77-.75t-4.79-2.01-2.85-2.9-.94-3.41q0-2.42 1.46-4.04 1.46-1.63 4-2.6-1.37-.7-2.17-1.87-.81-1.18-.81-3.09 0-.77.29-1.59.28-.82.84-1.62.55-.81 1.39-1.53.83-.72 1.97-1.29-2.61-1.4-4.1-3.75-1.49-2.34-1.49-5.49 0-2.55 1.02-4.61t2.85-3.52q1.82-1.45 4.32-2.22 2.49-.77 5.44-.77 2.21 0 4.16.45 1.94.45 3.55 1.32m33.26 24.32v-5.79q-3.58.16-6.03.62-2.44.45-3.92 1.15-1.47.71-2.11 1.64-.63.94-.63 2.05 0 2.17 1.29 3.11t3.36.94q2.55 0 4.41-.92t3.63-2.8m-17.48-18.05-1.48-2.65q5.93-5.43 14.27-5.43 3.02 0 5.4.99t4.02 2.75 2.49 4.2q.86 2.45.86 5.36v21.71h-3.76q-1.17 0-1.8-.35-.64-.35-1.01-1.43l-.74-2.47q-1.3 1.17-2.54 2.06-1.24.88-2.58 1.49-1.34.6-2.87.92-1.52.32-3.36.32-2.18 0-4.02-.59-1.85-.59-3.19-1.76t-2.07-2.91q-.74-1.75-.74-4.06 0-1.3.44-2.59.43-1.29 1.42-2.47.99-1.17 2.56-2.21 1.58-1.04 3.87-1.81 2.3-.77 5.35-1.25 3.04-.49 6.96-.59v-2.01q0-3.45-1.47-5.11t-4.26-1.66q-2.01 0-3.33.47t-2.33 1.06q-1 .59-1.82 1.05-.82.47-1.83.47-.87 0-1.47-.45-.61-.45-.97-1.05"/></svg>