<svg xmlns="http://www.w3.org/2000/svg" width="600" height="400" viewBox="0 0 600 400"><rect width="100%" height="100%" fill="#DDDDDD"/><path fill="#999999" d="M140.515 200.77h10.75q3.96 0 6.91-.99 2.94-.99 4.89-2.83 1.95-1.85 2.92-4.5.96-2.64.96-5.91 0-3.1-.96-5.61-.97-2.52-2.89-4.28-1.93-1.77-4.87-2.71-2.94-.93-6.96-.93h-10.75zm-14.39-38.89h25.14q7.76 0 13.43 1.82t9.37 5.08q3.69 3.26 5.48 7.81t1.79 9.95q0 5.62-1.87 10.3t-5.62 8.05q-3.74 3.37-9.39 5.25-5.64 1.87-13.19 1.87h-10.75v27.23h-14.39zm74.58 43.6h24.93q0-2.57-.72-4.84-.73-2.27-2.17-3.99-1.44-1.71-3.66-2.7t-5.17-.99q-5.72 0-9.01 3.27-3.29 3.26-4.2 9.25m33.7 7.97h-33.97q.32 4.23 1.5 7.31 1.18 3.07 3.1 5.08 1.93 2 4.58 2.99 2.64.99 5.85.99t5.54-.74q2.33-.75 4.07-1.66t3.05-1.66 2.54-.75q1.66 0 2.46 1.23l3.8 4.81q-2.2 2.57-4.92 4.31-2.73 1.74-5.7 2.78-2.97 1.05-6.05 1.47-3.07.43-5.96.43-5.73 0-10.65-1.9t-8.56-5.61q-3.64-3.72-5.72-9.21-2.09-5.48-2.09-12.7 0-5.62 1.82-10.57t5.21-8.61q3.4-3.67 8.3-5.81 4.89-2.14 11.05-2.14 5.18 0 9.57 1.66t7.55 4.84q3.15 3.19 4.94 7.81 1.8 4.63 1.8 10.57 0 3-.65 4.04-.64 1.04-2.46 1.04m24.45-26.69.91 4.33q1.66-1.66 3.51-3.08 1.84-1.41 3.9-2.4t4.42-1.56q2.35-.56 5.13-.56 4.5 0 7.97 1.53 3.48 1.52 5.81 4.28 2.33 2.75 3.53 6.58 1.2 3.82 1.2 8.42v34.94h-13.21V204.3q0-5.02-2.3-7.78t-7.01-2.76q-3.42 0-6.42 1.56-3 1.55-5.67 4.22v39.7h-13.22v-54.89h8.08q2.57 0 3.37 2.41m59.33 18.72h24.94q0-2.57-.73-4.84-.72-2.27-2.16-3.99-1.45-1.71-3.67-2.7t-5.16-.99q-5.73 0-9.02 3.27-3.29 3.26-4.2 9.25m33.71 7.97h-33.97q.32 4.23 1.49 7.31 1.18 3.07 3.11 5.08 1.92 2 4.57 2.99t5.86.99 5.54-.74q2.32-.75 4.06-1.66t3.05-1.66 2.54-.75q1.66 0 2.47 1.23l3.79 4.81q-2.19 2.57-4.92 4.31t-5.7 2.78q-2.97 1.05-6.04 1.47-3.08.43-5.97.43-5.72 0-10.64-1.9-4.93-1.9-8.56-5.61-3.64-3.72-5.73-9.21-2.08-5.48-2.08-12.7 0-5.62 1.81-10.57 1.82-4.95 5.22-8.61 3.4-3.67 8.29-5.81 4.9-2.14 11.05-2.14 5.19 0 9.58 1.66 4.38 1.66 7.54 4.84 3.16 3.19 4.95 7.81 1.79 4.63 1.79 10.57 0 3-.64 4.04t-2.46 1.04m13.43-29.1h13.27v54.89h-13.27zm15.08-16q0 1.71-.69 3.21-.7 1.5-1.85 2.62-1.15 1.13-2.7 1.8t-3.32.67q-1.71 0-3.23-.67-1.53-.67-2.65-1.8-1.12-1.12-1.79-2.62t-.67-3.21q0-1.76.67-3.31.67-1.56 1.79-2.68t2.65-1.79q1.52-.67 3.23-.67 1.77 0 3.32.67t2.7 1.79 1.85 2.68q.69 1.55.69 3.31m23.33 19.32.8 6.2q2.57-4.92 6.1-7.73t8.35-2.81q3.8 0 6.1 1.66l-.86 9.9q-.27.96-.77 1.36-.51.4-1.37.4-.8 0-2.38-.26-1.58-.27-3.08-.27-2.19 0-3.9.64t-3.08 1.85q-1.36 1.2-2.41 2.91-1.04 1.71-1.95 3.91v33.81h-13.21v-54.89h7.76q2.03 0 2.83.72t1.07 2.6m57.25 37.39v-9.25q-5.73.26-9.63.99-3.91.72-6.26 1.84-2.36 1.13-3.37 2.62-1.02 1.5-1.02 3.27 0 3.48 2.06 4.97 2.06 1.5 5.38 1.5 4.06 0 7.03-1.47t5.81-4.47m-27.93-28.83-2.36-4.23q9.47-8.67 22.8-8.67 4.81 0 8.61 1.58t6.42 4.39 3.98 6.71q1.37 3.91 1.37 8.56v34.67h-5.99q-1.88 0-2.89-.56-1.02-.56-1.61-2.28l-1.17-3.95q-2.09 1.87-4.07 3.29-1.98 1.41-4.12 2.38-2.14.96-4.57 1.47-2.44.51-5.38.51-3.48 0-6.42-.94t-5.08-2.81-3.32-4.65q-1.18-2.79-1.18-6.48 0-2.08.7-4.14.69-2.06 2.27-3.94 1.58-1.87 4.1-3.53 2.51-1.66 6.17-2.89 3.67-1.23 8.54-2 4.87-.78 11.13-.94v-3.21q0-5.51-2.36-8.16-2.35-2.65-6.79-2.65-3.21 0-5.33.75-2.11.75-3.71 1.69-1.61.94-2.92 1.68-1.31.75-2.92.75-1.39 0-2.35-.72t-1.55-1.68"/></svg>