<svg xmlns="http://www.w3.org/2000/svg" width="600" height="400" viewBox="0 0 600 400"><rect width="100%" height="100%" fill="#DDDDDD"/><path fill="#999999" d="M193.73 157.605h12.91l-34.74 86.04h-14.46l-34.75-86.04h12.85q2.08 0 3.39 1.01 1.31 1.02 1.97 2.62l20.29 52.48q1.01 2.56 1.93 5.62.92 3.07 1.76 6.4.71-3.33 1.54-6.4.84-3.06 1.85-5.62l20.17-52.48q.47-1.37 1.87-2.5t3.42-1.13m20 24.99h14.75v61.05h-14.75zm16.77-17.79q0 1.91-.77 3.57-.77 1.67-2.05 2.92t-3.01 1.99q-1.72.74-3.69.74-1.9 0-3.6-.74-1.69-.74-2.94-1.99t-1.99-2.92q-.75-1.66-.75-3.57 0-1.96.75-3.69.74-1.72 1.99-2.97t2.94-1.99q1.7-.75 3.6-.75 1.97 0 3.69.75 1.73.74 3.01 1.99t2.05 2.97q.77 1.73.77 3.69m33.32 79.79q-7.97 0-12.22-4.49-4.26-4.49-4.26-12.41v-34.09h-6.24q-1.19 0-2.03-.77-.83-.78-.83-2.32v-5.83l9.82-1.61 3.09-16.66q.3-1.19 1.13-1.85.83-.65 2.14-.65h7.62v19.22h16.3v10.47h-16.3v33.08q0 2.86 1.4 4.46 1.4 1.61 3.84 1.61 1.36 0 2.29-.33.92-.32 1.6-.68.69-.36 1.22-.68.54-.33 1.07-.33.66 0 1.07.33.42.32.9.98l4.4 7.14q-3.21 2.67-7.38 4.04-4.16 1.37-8.63 1.37m50.94-62.95q6.78 0 12.34 2.2 5.57 2.2 9.52 6.25 3.96 4.05 6.1 9.88t2.14 13.03q0 7.26-2.14 13.09t-6.1 9.93q-3.95 4.11-9.52 6.31-5.56 2.2-12.34 2.2-6.85 0-12.44-2.2t-9.55-6.31q-3.96-4.1-6.13-9.93t-2.17-13.09q0-7.2 2.17-13.03t6.13-9.88 9.55-6.25 12.44-2.2m0 51.59q7.61 0 11.27-5.12t3.66-14.99q0-9.88-3.66-15.06-3.66-5.17-11.27-5.17-7.74 0-11.46 5.2-3.72 5.21-3.72 15.03 0 9.81 3.72 14.96t11.46 5.15m54.32-46.95.89 6.9q2.86-5.47 6.79-8.59 3.92-3.13 9.28-3.13 4.22 0 6.78 1.85l-.95 11q-.3 1.08-.86 1.52-.57.45-1.52.45-.89 0-2.65-.3-1.75-.3-3.42-.3-2.44 0-4.34.72-1.91.71-3.43 2.05-1.51 1.34-2.67 3.24-1.16 1.91-2.17 4.35v37.6h-14.7v-61.05h8.63q2.26 0 3.15.81.89.8 1.19 2.88m31.89-3.69h14.76v61.05h-14.76zm16.78-17.79q0 1.91-.77 3.57-.78 1.67-2.06 2.92-1.27 1.25-3 1.99t-3.69.74q-1.9 0-3.6-.74-1.69-.74-2.94-1.99t-2-2.92q-.74-1.66-.74-3.57 0-1.96.74-3.69.75-1.72 2-2.97t2.94-1.99q1.7-.75 3.6-.75 1.96 0 3.69.75 1.73.74 3 1.99 1.28 1.25 2.06 2.97.77 1.73.77 3.69m45.22 63.07v-10.29q-6.37.3-10.71 1.1t-6.96 2.05-3.75 2.92q-1.13 1.66-1.13 3.63 0 3.86 2.29 5.53t5.98 1.67q4.52 0 7.83-1.64 3.3-1.64 6.45-4.97m-31.06-32.07-2.62-4.7q10.54-9.64 25.35-9.64 5.36 0 9.58 1.76 4.22 1.75 7.14 4.88 2.92 3.12 4.43 7.46 1.52 4.35 1.52 9.52v38.56h-6.66q-2.09 0-3.22-.62-1.13-.63-1.78-2.53l-1.31-4.41q-2.32 2.09-4.52 3.66-2.2 1.58-4.58 2.65t-5.09 1.64q-2.71.56-5.98.56-3.87 0-7.14-1.04t-5.65-3.12q-2.38-2.09-3.69-5.18t-1.31-7.2q0-2.32.77-4.61.78-2.29 2.53-4.37 1.76-2.09 4.55-3.93 2.8-1.85 6.87-3.21 4.08-1.37 9.49-2.23 5.42-.87 12.38-1.05v-3.57q0-6.12-2.62-9.07t-7.55-2.95q-3.57 0-5.92.84-2.35.83-4.14 1.87-1.78 1.04-3.24 1.88-1.46.83-3.24.83-1.55 0-2.62-.8-1.07-.81-1.73-1.88"/></svg>