<svg xmlns="http://www.w3.org/2000/svg" width="600" height="800" viewBox="0 0 600 800"><rect width="100%" height="100%" fill="#DDDDDD"/><path fill="#999999" d="M150.365 411.225q.63 0 1.11.49l3.02 3.27q-2.51 3.11-6.17 4.76-3.66 1.66-8.79 1.66-4.59 0-8.25-1.57t-6.26-4.36q-2.59-2.8-3.97-6.67-1.39-3.88-1.39-8.47 0-4.64 1.49-8.5 1.48-3.86 4.17-6.66 2.69-2.79 6.43-4.34 3.73-1.56 8.26-1.56 4.51 0 8 1.48 3.49 1.49 5.94 3.88l-2.57 3.56q-.22.35-.58.6-.36.26-.98.26-.43 0-.89-.24-.45-.25-.99-.6-.55-.36-1.26-.79-.71-.42-1.65-.78t-2.18-.6-2.87-.24q-2.76 0-5.05.98-2.3.99-3.95 2.85-1.65 1.87-2.57 4.56-.91 2.7-.91 6.14 0 3.48.98 6.19.99 2.71 2.67 4.56t3.96 2.83q2.28.99 4.9.99 1.57 0 2.84-.17t2.34-.54q1.06-.38 2.02-.96.95-.58 1.89-1.44.29-.26.6-.41.32-.16.66-.16m23.74 2.17v-4.93q-3.05.14-5.13.52-2.08.39-3.34.99-1.25.6-1.79 1.39-.54.8-.54 1.74 0 1.85 1.09 2.65 1.1.8 2.87.8 2.16 0 3.75-.78 1.58-.79 3.09-2.38m-14.88-15.36-1.25-2.26q5.04-4.61 12.14-4.61 2.56 0 4.59.84 2.02.84 3.42 2.34 1.39 1.49 2.12 3.57t.73 4.56v18.47h-3.19q-1 0-1.54-.3-.55-.3-.86-1.21l-.63-2.11q-1.11 1-2.16 1.75-1.06.76-2.2 1.27t-2.43.79q-1.3.27-2.87.27-1.85 0-3.42-.5-1.56-.5-2.7-1.5t-1.77-2.48-.63-3.45q0-1.11.37-2.21.37-1.09 1.21-2.09t2.18-1.88q1.34-.89 3.29-1.54 1.96-.66 4.55-1.07t5.93-.5v-1.71q0-2.93-1.26-4.34-1.25-1.42-3.61-1.42-1.71 0-2.84.4t-1.98.9l-1.55.9q-.7.4-1.56.4-.74 0-1.25-.39-.51-.38-.83-.89m35.4 22.91h-7.04v-29.24h4.3q1.37 0 1.8 1.28l.45 2.17q.77-.86 1.61-1.57.85-.71 1.8-1.23.95-.51 2.05-.81t2.41-.3q2.76 0 4.55 1.5 1.78 1.5 2.66 3.97.68-1.45 1.71-2.49t2.25-1.69q1.23-.66 2.61-.97 1.38-.32 2.78-.32 2.42 0 4.3.74 1.88.75 3.17 2.17 1.28 1.42 1.95 3.48.67 2.05.67 4.7v18.61h-7.04v-18.61q0-2.79-1.23-4.2-1.22-1.42-3.59-1.42-1.08 0-2.01.38-.92.37-1.62 1.06-.7.7-1.1 1.76-.4 1.05-.4 2.42v18.61h-7.07v-18.61q0-2.94-1.18-4.28t-3.46-1.34q-1.54 0-2.87.76-1.32.76-2.46 2.07zm40.92-29.24h7.07v29.24h-7.07zm8.04-8.52q0 .91-.37 1.71t-.98 1.39q-.61.6-1.44.96t-1.77.36q-.91 0-1.72-.36t-1.41-.96q-.6-.59-.96-1.39-.35-.8-.35-1.71 0-.94.35-1.77.36-.83.96-1.42.6-.6 1.41-.96t1.72-.36q.94 0 1.77.36t1.44.96q.61.59.98 1.42t.37 1.77m25.65 11.68-1.59 2.54q-.29.45-.6.64-.32.19-.8.19-.51 0-1.1-.29-.58-.28-1.35-.64t-1.75-.64q-.99-.29-2.33-.29-2.08 0-3.26.89-1.18.88-1.18 2.3 0 .95.61 1.59t1.62 1.12q1.02.49 2.3.87 1.28.39 2.61.84 1.32.46 2.6 1.04 1.29.59 2.3 1.48 1.01.9 1.62 2.16.62 1.25.62 3.02 0 2.11-.76 3.89t-2.24 3.08q-1.48 1.29-3.66 2.02t-5.03.73q-1.51 0-2.95-.27-1.44-.28-2.76-.76-1.33-.48-2.46-1.14-1.12-.66-1.98-1.43l1.63-2.67q.31-.49.74-.75.43-.25 1.08-.25.66 0 1.24.37.59.37 1.36.8.77.42 1.81.8 1.04.37 2.63.37 1.26 0 2.15-.3.9-.3 1.49-.79.58-.48.85-1.12t.27-1.33q0-1.02-.61-1.68t-1.63-1.14q-1.01-.48-2.3-.87-1.3-.38-2.65-.84-1.36-.46-2.66-1.07-1.29-.61-2.3-1.55-1.02-.94-1.63-2.31t-.61-3.31q0-1.79.71-3.42.71-1.62 2.1-2.83 1.38-1.21 3.44-1.94 2.07-.73 4.78-.73 3.02 0 5.5 1t4.13 2.62m21.06 18.53v-4.93q-3.05.14-5.13.52-2.08.39-3.33.99-1.26.6-1.8 1.39-.54.8-.54 1.74 0 1.85 1.1 2.65t2.86.8q2.17 0 3.75-.78 1.58-.79 3.09-2.38m-14.87-15.36-1.26-2.26q5.05-4.61 12.14-4.61 2.57 0 4.59.84 2.03.84 3.42 2.34 1.4 1.49 2.12 3.57.73 2.08.73 4.56v18.47h-3.19q-1 0-1.54-.3t-.85-1.21l-.63-2.11q-1.11 1-2.17 1.75-1.05.76-2.19 1.27t-2.44.79q-1.3.27-2.86.27-1.86 0-3.42-.5-1.57-.5-2.71-1.5t-1.77-2.48q-.62-1.48-.62-3.45 0-1.11.37-2.21.37-1.09 1.21-2.09t2.18-1.88q1.34-.89 3.29-1.54 1.95-.66 4.55-1.07 2.59-.41 5.92-.5v-1.71q0-2.93-1.25-4.34-1.25-1.42-3.62-1.42-1.71 0-2.84.4-1.12.4-1.98.9-.85.5-1.55.9t-1.55.4q-.74 0-1.26-.39-.51-.38-.82-.89m72.1-18.3v6.3h-12.42v34.91h-7.67v-34.91h-12.43v-6.3zm4.53 11.97h7.07v29.24h-7.07zm8.04-8.52q0 .91-.37 1.71t-.98 1.39q-.62.6-1.44.96-.83.36-1.77.36-.91 0-1.72-.36-.82-.36-1.42-.96-.59-.59-.95-1.39t-.36-1.71q0-.94.36-1.77t.95-1.42q.6-.6 1.42-.96.81-.36 1.72-.36.94 0 1.77.36.82.36 1.44.96.61.59.98 1.42t.37 1.77m15.96 38.22q-3.82 0-5.86-2.16-2.03-2.15-2.03-5.94v-16.33h-3q-.57 0-.97-.37t-.4-1.11v-2.79l4.71-.77 1.48-7.98q.14-.57.54-.89.4-.31 1.03-.31h3.64v9.21h7.81v5.01h-7.81v15.85q0 1.37.67 2.13.67.77 1.84.77.66 0 1.1-.15.44-.16.77-.33t.58-.33q.26-.15.52-.15.31 0 .51.15.2.16.43.47l2.11 3.42q-1.54 1.29-3.54 1.94-1.99.66-4.13.66m29.61-29.7h7.04v29.24h-4.3q-1.4 0-1.77-1.28l-.48-2.34q-1.8 1.82-3.97 2.95-2.16 1.13-5.1 1.13-2.39 0-4.23-.82-1.84-.81-3.09-2.29-1.26-1.48-1.9-3.52t-.64-4.49v-18.58h7.04v18.58q0 2.68 1.24 4.15t3.72 1.47q1.82 0 3.42-.82 1.6-.81 3.02-2.23zm14.08-13.11h7.04v42.35h-7.04zm29.53 34.8v-4.93q-3.05.14-5.13.52-2.08.39-3.34.99-1.25.6-1.79 1.39-.55.8-.55 1.74 0 1.85 1.1 2.65t2.87.8q2.16 0 3.74-.78 1.59-.79 3.1-2.38m-14.88-15.36-1.25-2.26q5.04-4.61 12.14-4.61 2.56 0 4.58.84 2.03.84 3.42 2.34 1.4 1.49 2.13 3.57.72 2.08.72 4.56v18.47h-3.19q-.99 0-1.54-.3-.54-.3-.85-1.21l-.63-2.11q-1.11 1-2.16 1.75-1.06.76-2.2 1.27t-2.44.79q-1.29.27-2.86.27-1.85 0-3.42-.5t-2.71-1.5-1.76-2.48q-.63-1.48-.63-3.45 0-1.11.37-2.21.37-1.09 1.21-2.09t2.18-1.88q1.34-.89 3.29-1.54 1.95-.66 4.55-1.07 2.59-.41 5.93-.5v-1.71q0-2.93-1.26-4.34-1.25-1.42-3.62-1.42-1.71 0-2.83.4-1.13.4-1.98.9-.86.5-1.56.9t-1.55.4q-.74 0-1.25-.39-.52-.38-.83-.89m34.57-4.56.43 3.3q1.37-2.62 3.25-4.12 1.88-1.49 4.44-1.49 2.03 0 3.25.88l-.45 5.27q-.15.52-.42.73t-.72.21q-.43 0-1.27-.14t-1.64-.14q-1.17 0-2.08.34t-1.64.98q-.73.65-1.28 1.56-.56.91-1.04 2.08v18.01h-7.04v-29.24h4.13q1.08 0 1.51.38.43.39.57 1.39"/></svg>