<svg xmlns="http://www.w3.org/2000/svg" width="600" height="800" viewBox="0 0 600 800"><rect width="100%" height="100%" fill="#DDDDDD"/><path fill="#999999" d="M151.765 411.185q.63 0 1.12.49l3.02 3.27q-2.51 3.11-6.17 4.76-3.67 1.66-8.8 1.66-4.58 0-8.25-1.57-3.66-1.57-6.25-4.36-2.6-2.8-3.98-6.67-1.38-3.88-1.38-8.47 0-4.64 1.48-8.5t4.18-6.66q2.69-2.79 6.42-4.34 3.74-1.56 8.27-1.56 4.5 0 7.99 1.48 3.49 1.49 5.94 3.88l-2.56 3.56q-.23.35-.58.6-.36.26-.99.26-.43 0-.88-.24-.46-.25-1-.6-.54-.36-1.25-.79-.72-.42-1.66-.78t-2.18-.6-2.86-.24q-2.76 0-5.06.98-2.29.99-3.95 2.85-1.65 1.87-2.56 4.56-.91 2.7-.91 6.14 0 3.48.98 6.19t2.66 4.56q1.69 1.85 3.97 2.83 2.28.99 4.9.99 1.57 0 2.83-.17 1.27-.17 2.34-.54 1.07-.38 2.02-.96.96-.58 1.9-1.44.28-.26.6-.41.31-.16.65-.16m23.74 2.17v-4.93q-3.05.14-5.13.52-2.08.39-3.33.99t-1.8 1.39q-.54.8-.54 1.74 0 1.85 1.1 2.65t2.86.8q2.17 0 3.75-.78 1.58-.79 3.09-2.38m-14.87-15.36-1.26-2.26q5.05-4.61 12.14-4.61 2.57 0 4.59.84 2.03.84 3.42 2.34 1.4 1.49 2.13 3.57.72 2.08.72 4.56v18.47h-3.19q-1 0-1.54-.3t-.85-1.21l-.63-2.11q-1.11 1-2.17 1.75-1.05.76-2.19 1.27t-2.44.79q-1.29.27-2.86.27-1.85 0-3.42-.5t-2.71-1.5-1.77-2.48q-.62-1.48-.62-3.45 0-1.11.37-2.21.37-1.09 1.21-2.09t2.18-1.88q1.34-.89 3.29-1.54 1.95-.66 4.55-1.07 2.59-.41 5.92-.5v-1.71q0-2.93-1.25-4.34-1.25-1.42-3.62-1.42-1.71 0-2.83.4-1.13.4-1.99.9-.85.5-1.55.9t-1.55.4q-.74 0-1.26-.39-.51-.38-.82-.89m35.39 22.91h-7.04v-29.24h4.31q1.37 0 1.79 1.28l.46 2.17q.77-.86 1.61-1.57t1.8-1.23q.95-.51 2.05-.81 1.09-.3 2.41-.3 2.76 0 4.54 1.5t2.67 3.97q.68-1.45 1.71-2.49 1.02-1.04 2.25-1.69 1.22-.66 2.61-.97 1.38-.32 2.77-.32 2.43 0 4.31.74 1.88.75 3.16 2.17t1.95 3.48q.67 2.05.67 4.7v18.61h-7.04v-18.61q0-2.79-1.22-4.2-1.23-1.42-3.59-1.42-1.09 0-2.01.38-.93.37-1.63 1.06-.69.7-1.09 1.76-.4 1.05-.4 2.42v18.61h-7.07v-18.61q0-2.94-1.18-4.28-1.19-1.34-3.47-1.34-1.54 0-2.86.76-1.33.76-2.47 2.07zm40.93-29.24h7.07v29.24h-7.07zm8.04-8.52q0 .91-.37 1.71t-.99 1.39q-.61.6-1.44.96-.82.36-1.76.36-.91 0-1.73-.36-.81-.36-1.41-.96-.6-.59-.95-1.39-.36-.8-.36-1.71 0-.94.36-1.77.35-.83.95-1.42.6-.6 1.41-.96.82-.36 1.73-.36.94 0 1.76.36.83.36 1.44.96.62.59.99 1.42t.37 1.77m25.65 11.68-1.6 2.54q-.28.45-.6.64-.31.19-.8.19-.51 0-1.09-.29-.59-.28-1.36-.64t-1.75-.64q-.98-.29-2.32-.29-2.08 0-3.26.89-1.19.88-1.19 2.3 0 .95.62 1.59.61.64 1.62 1.12 1.01.49 2.29.87 1.29.39 2.61.84 1.33.46 2.61 1.04 1.28.59 2.29 1.48 1.02.9 1.63 2.16.61 1.25.61 3.02 0 2.11-.75 3.89-.76 1.78-2.24 3.08-1.48 1.29-3.66 2.02t-5.03.73q-1.51 0-2.95-.27-1.44-.28-2.77-.76-1.32-.48-2.45-1.14t-1.98-1.43l1.62-2.67q.32-.49.75-.75.42-.25 1.08-.25.65 0 1.24.37.58.37 1.35.8.77.42 1.81.8 1.04.37 2.64.37 1.25 0 2.15-.3t1.48-.79q.59-.48.86-1.12t.27-1.33q0-1.02-.62-1.68-.61-.66-1.62-1.14t-2.31-.87q-1.3-.38-2.65-.84t-2.65-1.07-2.31-1.55-1.62-2.31q-.62-1.37-.62-3.31 0-1.79.72-3.42.71-1.62 2.09-2.83t3.45-1.94 4.77-.73q3.03 0 5.5 1 2.48 1 4.14 2.62m21.06 18.53v-4.93q-3.05.14-5.13.52-2.08.39-3.34.99-1.25.6-1.79 1.39-.54.8-.54 1.74 0 1.85 1.09 2.65 1.1.8 2.87.8 2.16 0 3.75-.78 1.58-.79 3.09-2.38m-14.88-15.36-1.25-2.26q5.04-4.61 12.14-4.61 2.56 0 4.59.84 2.02.84 3.42 2.34 1.39 1.49 2.12 3.57t.73 4.56v18.47h-3.19q-1 0-1.54-.3-.55-.3-.86-1.21l-.63-2.11q-1.11 1-2.16 1.75-1.06.76-2.2 1.27t-2.43.79q-1.3.27-2.87.27-1.85 0-3.42-.5-1.56-.5-2.7-1.5t-1.77-2.48-.63-3.45q0-1.11.37-2.21.37-1.09 1.21-2.09t2.18-1.88q1.34-.89 3.3-1.54 1.95-.66 4.54-1.07t5.93-.5v-1.71q0-2.93-1.26-4.34-1.25-1.42-3.61-1.42-1.71 0-2.84.4t-1.98.9l-1.55.9q-.7.4-1.56.4-.74 0-1.25-.39-.51-.38-.83-.89m72.11-18.3v6.3h-12.43v34.91h-7.67v-34.91h-12.42v-6.3zm10.51 13.74.43 3.3q1.37-2.62 3.25-4.12 1.88-1.49 4.45-1.49 2.02 0 3.24.88l-.45 5.27q-.14.52-.41.73-.28.21-.73.21-.43 0-1.27-.14t-1.64-.14q-1.17 0-2.08.34t-1.64.98q-.72.65-1.28 1.56t-1.04 2.08v18.01h-7.04v-29.24h4.13q1.09 0 1.51.38.43.39.57 1.39m20.61 9.49h13.28q0-1.37-.38-2.58-.39-1.21-1.16-2.13-.77-.91-1.95-1.44-1.18-.52-2.75-.52-3.05 0-4.8 1.74-1.76 1.73-2.24 4.93m17.95 4.24h-18.09q.17 2.25.79 3.89.63 1.64 1.66 2.71 1.02 1.07 2.43 1.6 1.41.52 3.12.52t2.95-.4q1.24-.39 2.17-.88.93-.48 1.63-.88.69-.4 1.35-.4.88 0 1.31.65l2.02 2.57q-1.17 1.37-2.62 2.29-1.45.93-3.03 1.49-1.59.55-3.22.78-1.64.23-3.18.23-3.05 0-5.67-1.01-2.63-1.02-4.56-3-1.94-1.98-3.05-4.9t-1.11-6.77q0-2.99.96-5.63.97-2.63 2.78-4.58 1.81-1.96 4.42-3.1t5.89-1.14q2.76 0 5.1.89 2.33.88 4.02 2.58 1.68 1.69 2.63 4.16.96 2.46.96 5.63 0 1.59-.35 2.15-.34.55-1.31.55m7.16-15.5h7.07v29.24h-7.07zm8.03-8.52q0 .91-.37 1.71t-.98 1.39q-.61.6-1.44.96t-1.77.36q-.91 0-1.72-.36t-1.41-.96q-.6-.59-.96-1.39-.35-.8-.35-1.71 0-.94.35-1.77.36-.83.96-1.42.6-.6 1.41-.96t1.72-.36q.94 0 1.77.36t1.44.96q.61.59.98 1.42t.37 1.77m12.32 9.8.48 2.31q.88-.88 1.87-1.64.98-.75 2.08-1.28t2.35-.83 2.74-.3q2.39 0 4.24.82 1.85.81 3.09 2.28 1.24 1.46 1.89 3.5.64 2.04.64 4.49v18.61h-7.04v-18.61q0-2.68-1.23-4.15-1.22-1.47-3.73-1.47-1.83 0-3.42.83-1.6.83-3.02 2.25v21.15h-7.04v-29.24h4.3q1.37 0 1.8 1.28m38.98-1.74q3.25 0 5.92 1.06 2.66 1.05 4.56 2.99 1.89 1.94 2.92 4.73t1.03 6.24q0 3.48-1.03 6.27-1.03 2.8-2.92 4.76-1.9 1.97-4.56 3.02-2.67 1.06-5.92 1.06-3.27 0-5.95-1.06-2.68-1.05-4.58-3.02-1.89-1.96-2.93-4.76-1.04-2.79-1.04-6.27 0-3.45 1.04-6.24t2.93-4.73q1.9-1.94 4.58-2.99 2.68-1.06 5.95-1.06m0 24.71q3.65 0 5.41-2.45 1.75-2.45 1.75-7.18t-1.75-7.21q-1.76-2.48-5.41-2.48-3.7 0-5.48 2.49-1.78 2.5-1.78 7.2t1.78 7.17q1.78 2.46 5.48 2.46"/></svg>