<svg xmlns="http://www.w3.org/2000/svg" width="200" height="100" viewBox="0 0 200 100"><rect width="100%" height="100%" fill="#DDDDDD"/><path fill="#999999" d="M43.14 57.09h3.67q1.01 0 1.7-.25.69-.24 1.1-.65.41-.4.59-.94.19-.54.19-1.15 0-.63-.21-1.14-.2-.51-.63-.86-.43-.36-1.12-.55-.68-.19-1.64-.19h-3.65zm3.09-13.88h-3.09v5.64h2.88q1.87 0 2.82-.67.95-.68.95-2.15 0-1.53-.86-2.18-.87-.64-2.7-.64M39.5 40.4h6.73q1.91 0 3.28.36 1.36.37 2.23 1.04.87.68 1.28 1.64.4.95.4 2.16 0 .69-.2 1.31-.2.63-.63 1.18-.42.54-1.08.99-.65.45-1.56.76 4.03.9 4.03 4.34 0 1.24-.48 2.3-.47 1.05-1.37 1.81-.91.77-2.23 1.2t-3.02.43H39.5zm24.57 15.94v-2.33q-1.44.06-2.43.25-.98.18-1.58.46-.59.29-.85.66-.25.38-.25.83 0 .88.52 1.25.52.38 1.35.38 1.03 0 1.78-.37t1.46-1.13m-7.04-7.27-.6-1.07q2.39-2.19 5.75-2.19 1.22 0 2.18.4t1.62 1.11 1 1.69q.35.99.35 2.16v8.75h-1.51q-.48 0-.73-.14-.26-.14-.41-.58l-.3-.99q-.52.47-1.02.83-.5.35-1.04.6-.54.24-1.15.37-.62.13-1.36.13-.88 0-1.62-.24t-1.28-.71-.84-1.17q-.3-.71-.3-1.64 0-.52.18-1.04.17-.52.57-1 .4-.47 1.03-.89.64-.41 1.56-.73.93-.31 2.16-.5 1.22-.2 2.8-.24v-.81q0-1.39-.59-2.06-.59-.66-1.71-.66-.81 0-1.35.18-.53.19-.94.43-.4.24-.73.42-.33.19-.74.19-.35 0-.59-.18t-.39-.42m16.37-2.16.21 1.56q.64-1.24 1.53-1.95.9-.71 2.11-.71.96 0 1.54.42l-.22 2.5q-.06.24-.19.34t-.35.1q-.2 0-.6-.06-.4-.07-.77-.07-.56 0-.99.16t-.78.47q-.34.3-.6.73-.27.43-.5.99v8.53h-3.33V46.07h1.96q.51 0 .71.18.21.18.27.66m22.39 8.91v-6.21q-.57-.69-1.24-.98-.67-.28-1.44-.28-.75 0-1.36.28-.61.29-1.04.86t-.66 1.46q-.23.88-.23 2.09t.19 2.05q.2.85.56 1.38.37.53.9.77.52.24 1.17.24 1.04 0 1.77-.44.73-.43 1.38-1.22m0-15.96h3.33v20.06h-2.04q-.66 0-.84-.61l-.28-1.33q-.84.95-1.92 1.55-1.09.59-2.53.59-1.14 0-2.08-.47-.95-.47-1.63-1.37t-1.05-2.22-.37-3.02q0-1.54.41-2.87.42-1.32 1.21-2.29.78-.97 1.87-1.52 1.1-.55 2.46-.55 1.16 0 1.98.37.83.36 1.48.98zm12.75 5.99q1.54 0 2.8.5 1.27.5 2.16 1.42.9.92 1.39 2.24.48 1.32.48 2.96t-.48 2.97q-.49 1.32-1.39 2.25-.89.93-2.16 1.43-1.26.5-2.8.5-1.55 0-2.82-.5t-2.16-1.43q-.9-.93-1.4-2.25-.49-1.33-.49-2.97t.49-2.96q.5-1.32 1.4-2.24.89-.92 2.16-1.42t2.82-.5m0 11.71q1.73 0 2.56-1.16t.83-3.41q0-2.24-.83-3.41-.83-1.18-2.56-1.18-1.75 0-2.6 1.19-.84 1.18-.84 3.4 0 2.23.84 3.4.85 1.17 2.6 1.17m30.11-17.16v2.98h-5.89v16.54h-3.63V43.38h-5.89V40.4zm2.14 5.67h3.35v13.85h-3.35zm3.81-4.04q0 .43-.17.81-.18.38-.47.66-.29.29-.68.46t-.84.17q-.43 0-.81-.17-.39-.17-.67-.46-.29-.28-.46-.66-.16-.38-.16-.81 0-.44.16-.83.17-.4.46-.68.28-.28.67-.45.38-.17.81-.17.45 0 .84.17t.68.45.47.68q.17.39.17.83m9.07 3.82q1.54 0 2.8.5 1.27.5 2.17 1.42.89.92 1.38 2.24.48 1.32.48 2.96t-.48 2.97q-.49 1.32-1.38 2.25-.9.93-2.17 1.43-1.26.5-2.8.5-1.55 0-2.82-.5t-2.16-1.43q-.9-.93-1.4-2.25-.49-1.33-.49-2.97t.49-2.96q.5-1.32 1.4-2.24.89-.92 2.16-1.42t2.82-.5m0 11.71q1.73 0 2.56-1.16t.83-3.41q0-2.24-.83-3.41-.83-1.18-2.56-1.18-1.75 0-2.6 1.19-.84 1.18-.84 3.4 0 2.23.84 3.4.85 1.17 2.6 1.17"/></svg>